{"glyphs":{"0":{"ha":1592,"x_min":0,"x_max":0,"o":"m 1333 244 b 667 -278 1333 -44 1035 -278 b 0 244 299 -278 0 -44 l 0 592 b 667 1114 0 881 299 1114 b 1333 592 1035 1114 1333 881 l 1333 244 m 464 0 b 667 -208 464 -115 554 -208 b 869 0 779 -208 869 -115 l 869 836 b 667 1044 869 951 779 1044 b 464 836 554 1044 464 951 "},"1":{"ha":896,"x_min":0,"x_max":0,"o":"m 0 999 b 174 1114 96 999 174 1050 l 638 1114 l 638 -278 l 174 -278 l 174 883 l 0 883 l 0 999 "},"2":{"ha":1560,"x_min":0,"x_max":0,"o":"m 0 -278 l 1294 -278 l 1294 -162 l 463 -162 b 1294 736 463 306 1294 358 b 832 1114 1294 944 1190 1114 l 463 1114 b 0 736 104 1114 0 944 l 464 736 l 464 792 b 646 1000 466 939 558 1000 b 831 792 736 1000 829 939 b -1 -107 831 414 -1 361 "},"3":{"ha":1560,"x_min":0,"x_max":0,"o":"m 647 1114 b 1229 736 968 1114 1229 944 b 975 424 1229 607 1128 492 b 1297 99 1168 359 1297 238 b 649 -278 1297 -110 1007 -278 b 0 99 290 -278 0 -110 l 0 154 l 464 154 l 463 46 b 647 -162 461 -101 557 -162 b 832 46 738 -162 833 -101 l 831 154 b 646 363 829 301 736 363 l 464 363 l 464 475 l 649 475 b 833 683 739 475 835 536 l 832 792 b 646 1000 830 939 736 1000 b 464 792 558 1000 466 939 l 464 736 l 65 736 b 647 1114 65 944 326 1114 "},"4":{"ha":1592,"x_min":0,"x_max":0,"o":"m 1333 42 l 1160 42 l 1160 -278 l 696 -278 l 696 42 l 0 42 l 0 157 l 696 1114 l 1160 1114 l 1160 157 l 1333 157 m 696 157 l 696 999 l 115 157 "},"5":{"ha":1560,"x_min":0,"x_max":0,"o":"m 0 551 l 174 1114 l 1121 1114 l 1121 1000 l 602 1000 l 499 667 l 647 667 b 1294 194 1004 667 1294 455 b 647 -278 1294 -66 1004 -278 b 13 100 335 -278 73 -115 l 464 100 l 464 44 b 646 -164 466 -103 558 -164 b 832 46 738 -162 832 -101 l 832 343 b 647 551 832 490 738 551 "},"6":{"ha":1560,"x_min":0,"x_max":0,"o":"m 464 571 b 777 667 551 631 659 667 b 1294 194 1062 667 1294 455 b 647 -278 1294 -66 1004 -278 b 0 194 290 -278 0 -67 l 0 642 b 647 1114 0 902 290 1114 b 1180 910 868 1114 1063 1033 l 831 736 l 831 792 b 649 1000 829 939 736 1000 b 464 792 558 1000 464 939 l 464 571 m 463 46 b 647 -162 463 -101 557 -162 b 832 46 738 -162 832 -101 l 832 343 b 647 551 832 490 738 551 b 463 343 557 551 463 490 l 463 46 "},"7":{"ha":1418,"x_min":0,"x_max":0,"o":"m 1160 999 b 813 -278 1160 999 813 651 l 349 -278 b 696 999 349 651 696 999 l 0 999 l 0 1114 l 1160 1114 l 1160 999 "},"8":{"ha":1560,"x_min":0,"x_max":0,"o":"m 646 363 b 464 154 558 363 466 301 l 463 46 b 647 -162 461 -101 557 -162 b 832 46 738 -162 833 -101 l 831 154 b 646 363 829 301 736 363 m 647 1000 b 465 792 560 1000 467 939 l 464 683 b 649 475 462 536 558 475 b 833 683 739 475 835 536 l 832 792 b 647 1000 830 939 738 1000 m 1297 99 b 649 -278 1297 -110 1007 -278 b 0 99 290 -278 0 -110 b 321 424 0 237 129 358 b 65 736 167 492 65 606 b 647 1114 65 944 326 1114 b 1229 736 968 1114 1229 944 b 975 424 1229 607 1128 492 b 1297 99 1168 359 1297 238 "},"9":{"ha":1560,"x_min":0,"x_max":0,"o":"m 1294 194 b 647 -278 1294 -67 1004 -278 b 13 100 335 -278 73 -115 l 464 100 l 464 44 b 646 -164 466 -103 558 -164 b 831 44 736 -164 831 -103 l 831 266 b 518 169 744 205 635 169 b 0 642 232 169 0 381 b 647 1114 0 902 290 1114 b 1294 642 1004 1114 1294 903 l 1294 194 m 832 790 b 647 999 832 938 738 999 b 463 790 557 999 463 938 l 463 493 b 647 285 463 346 557 285 b 832 493 738 285 832 346 l 832 790 "}," ":{"ha":556,"x_min":0,"x_max":0,"o":""},"!":{"ha":701,"x_min":0,"x_max":0,"o":"m 360 189 l 89 189 l -1 1114 l 450 1114 m 451 -278 l -1 -278 l -1 6 l 451 6 "},"\"":{"ha":732,"x_min":0,"x_max":0,"o":"m 180 664 l 45 664 l 0 1114 l 225 1114 m 540 664 l 405 664 l 360 1114 l 585 1114 "},"#":{"ha":1335,"x_min":0,"x_max":0,"o":"m 710 301 l 773 535 l 477 535 l 415 301 m 923 650 l 1188 650 l 1188 535 l 892 535 l 829 301 l 1002 301 l 1002 186 l 799 186 l 675 -278 l 555 -278 l 679 186 l 384 186 l 260 -278 l 141 -278 l 265 186 l 0 186 l 0 301 l 296 301 l 358 535 l 186 535 l 186 650 l 389 650 l 514 1114 l 632 1114 l 508 650 l 804 650 l 928 1114 l 1047 1114 "},"$":{"ha":1738,"x_min":0,"x_max":0,"o":"m 797 1335 l 797 1160 b 1479 714 1179 1142 1479 950 l 925 714 l 924 839 b 739 1046 922 986 829 1046 b 554 839 649 1046 554 986 b 1479 131 554 507 1479 714 b 799 -315 1479 -105 1180 -297 l 799 -490 l 683 -490 l 683 -315 b 1 131 302 -298 1 -105 l 556 131 l 557 6 b 742 -201 558 -142 651 -201 b 926 6 832 -201 926 -142 b 1 714 926 338 1 131 b 682 1160 1 949 301 1142 l 682 1335 "},"%":{"ha":1767,"x_min":0,"x_max":0,"o":"m 683 -278 l 564 -278 l 937 1114 l 1056 1114 m 1 815 b 356 1183 1 1018 160 1183 b 712 815 552 1183 712 1018 b 356 447 712 612 552 447 b 1 815 160 447 1 612 m 486 1013 b 357 1114 486 1068 428 1114 b 228 1013 286 1114 228 1068 b 226 618 228 957 226 674 b 356 517 226 563 285 517 b 485 618 426 517 485 563 b 486 1013 485 674 486 957 m 908 21 b 1264 389 908 224 1068 389 b 1619 21 1460 389 1619 224 b 1264 -347 1619 -182 1460 -347 b 908 21 1068 -347 908 -182 m 1394 218 b 1264 319 1394 274 1335 319 b 1135 218 1194 319 1135 274 b 1134 -176 1135 163 1134 -121 b 1263 -278 1134 -232 1192 -278 b 1392 -176 1334 -278 1392 -232 b 1394 218 1392 -121 1394 163 "},"&":{"ha":1615,"x_min":0,"x_max":0,"o":"m 831 736 l 831 792 b 649 1000 829 939 736 1000 b 464 792 558 1000 466 939 l 463 683 b 647 475 461 536 557 475 l 1468 475 l 1468 360 l 1294 360 l 1298 99 b 649 -278 1298 -110 1008 -278 b 1 99 291 -278 1 -110 b 321 424 1 237 129 358 b 66 736 167 492 66 606 b 648 1114 66 944 327 1114 b 1230 736 969 1114 1230 944 m 649 363 b 464 154 558 363 466 301 l 463 46 b 647 -162 461 -101 557 -162 b 832 46 738 -162 832 -101 l 831 363 "},"'":{"ha":372,"x_min":0,"x_max":0,"o":"m 180 664 l 45 664 l 0 1114 l 225 1114 "},"(":{"ha":896,"x_min":0,"x_max":0,"o":"m 582 -499 b 0 418 256 -458 0 -63 b 582 1335 0 899 256 1294 l 638 1224 b 464 418 542 1224 464 863 b 638 -387 464 -26 542 -387 l 582 -499 "},")":{"ha":896,"x_min":0,"x_max":0,"o":"m 0 -387 b 174 418 96 -387 174 -26 b 0 1224 174 863 96 1224 l 56 1335 b 638 418 381 1294 638 899 b 56 -499 638 -63 381 -458 "},"*":{"ha":843,"x_min":0,"x_max":0,"o":"m 235 439 l 253 611 l 112 510 l -1 705 l 157 776 l -1 847 l 111 1042 l 252 941 l 235 1114 l 460 1114 l 442 942 l 583 1043 l 696 848 l 538 777 l 696 705 l 584 510 l 443 612 l 460 439 "},"+":{"ha":843,"x_min":0,"x_max":0,"o":"m 406 69 l 290 69 l 290 360 l 0 360 l 0 475 l 290 475 l 290 765 l 406 765 l 406 475 l 696 475 l 696 360 l 406 360 "},",":{"ha":372,"x_min":0,"x_max":0,"o":"m 0 -278 l 0 -53 l 225 -53 l 225 -278 b 0 -503 225 -401 124 -503 l 0 -446 b 168 -278 93 -446 168 -371 "},"-":{"ha":669,"x_min":0,"x_max":0,"o":"m 0 475 l 522 475 l 522 360 l 0 360 "},".":{"ha":372,"x_min":0,"x_max":0,"o":"m 225 -278 l 0 -278 l 0 -53 l 225 -53 "},"/":{"ha":639,"x_min":0,"x_max":0,"o":"m 119 -278 l 0 -278 l 373 1114 l 492 1114 "},":":{"ha":372,"x_min":0,"x_max":0,"o":"m 225 -62 l 0 -62 l 0 163 l 225 163 m 225 511 l 0 511 l 0 736 l 225 736 "},";":{"ha":372,"x_min":0,"x_max":0,"o":"m 225 -62 b 0 -287 225 -186 124 -287 l 0 -231 b 168 -62 93 -231 168 -156 l 0 -62 l 0 163 l 225 163 l 225 -62 m 225 511 l 0 511 l 0 736 l 225 736 "},"<":{"ha":1072,"x_min":0,"x_max":0,"o":"m 0 531 l 925 969 l 925 732 l 263 418 l 925 104 l 925 -134 l 0 305 "},"=":{"ha":843,"x_min":0,"x_max":0,"o":"m 0 475 l 696 475 l 696 360 l 0 360 m 0 794 l 696 794 l 696 679 l 0 679 "},">":{"ha":1072,"x_min":0,"x_max":0,"o":"m 0 -134 l 0 104 l 662 418 l 0 732 l 0 969 l 925 531 l 925 305 "},"?":{"ha":1560,"x_min":0,"x_max":0,"o":"m 419 415 b 831 792 736 431 831 594 b 646 1000 831 939 736 1000 b 464 792 558 1000 466 939 l 464 736 l 0 736 b 463 1114 0 944 104 1114 l 832 1114 b 1294 736 1190 1114 1294 944 b 872 360 1294 536 1198 371 l 872 189 l 419 189 l 419 415 m 872 -283 l 419 -283 l 419 0 l 872 0 "},"@":{"ha":2022,"x_min":0,"x_max":0,"o":"m 1806 404 b 1682 -56 1806 131 1682 -56 l 1564 12 b 1669 404 1631 128 1669 262 b 1529 851 1669 570 1618 724 l 1318 -61 l 901 -61 l 914 -7 b 619 -88 813 -63 711 -88 b 421 -42 546 -88 476 -71 b 224 291 392 -26 224 63 b 239 417 224 329 228 371 b 844 903 293 650 561 903 b 1104 818 965 903 1038 861 l 1117 869 l 1516 869 b 886 1188 1373 1062 1144 1188 b 103 404 454 1188 103 836 b 886 -379 103 -28 454 -379 b 1278 -274 1029 -379 1163 -341 l 1346 -392 b 886 -515 1346 -392 1120 -515 b -33 404 379 -515 -33 -103 b 886 1324 -33 911 379 1324 b 1806 404 1393 1324 1806 911 m 1050 572 b 1057 628 1055 593 1057 611 b 928 751 1057 725 984 751 b 721 572 861 751 754 715 l 644 242 b 637 185 640 221 637 202 b 768 61 637 88 711 61 b 975 242 833 61 942 99 "},"A":{"ha":1232,"x_min":0,"x_max":0,"o":"m 313 876 l 109 157 l 516 157 m 709 1114 l 1103 -278 l 639 -278 l 549 42 l 76 42 l -14 -278 l -129 -278 l 264 1114 "},"B":{"ha":1560,"x_min":0,"x_max":0,"o":"m 649 -162 b 833 46 739 -162 833 -101 l 833 154 b 649 362 833 301 739 362 l 464 361 l 464 -163 m 649 475 b 833 683 739 475 833 536 l 833 792 b 649 1000 833 939 739 1000 l 464 999 l 464 475 m 649 1114 b 1297 738 1007 1114 1297 946 b 992 418 1297 603 1175 484 b 1297 99 1175 352 1297 234 b 649 -278 1297 -110 1007 -278 l 0 -278 l 0 1114 l 649 1114 "},"C":{"ha":1981,"x_min":0,"x_max":0,"o":"m 569 108 b 867 -212 569 -69 703 -212 b 1164 108 1031 -212 1164 -69 l 1164 299 l 1722 299 b 867 -328 1656 -56 1298 -328 b 0 417 389 -328 0 6 b 867 1161 0 828 389 1161 b 1717 536 1297 1161 1650 890 l 1158 536 l 1164 725 b 867 1046 1164 903 1031 1046 b 569 725 703 1046 569 903 "},"D":{"ha":1592,"x_min":0,"x_max":0,"o":"m 464 -208 l 667 -208 b 869 0 779 -208 869 -115 l 869 836 b 667 1044 869 951 779 1044 l 464 1044 m 667 1114 b 1333 592 1035 1114 1333 881 l 1333 244 b 667 -278 1333 -44 1035 -278 l 0 -278 l 0 1114 l 667 1114 "},"E":{"ha":1418,"x_min":0,"x_max":0,"o":"m 1160 1114 l 1160 999 l 464 999 l 464 475 l 986 475 l 986 360 l 464 360 l 464 -162 l 1160 -162 l 1160 -278 l 0 -278 l 0 1114 "},"F":{"ha":1418,"x_min":0,"x_max":0,"o":"m 1160 1114 l 1160 999 l 464 999 l 464 475 l 986 475 l 986 360 l 464 360 l 464 -278 l 0 -278 l 0 1114 "},"G":{"ha":1992,"x_min":0,"x_max":0,"o":"m 1733 -278 l 1164 -278 l 1164 -231 b 780 -328 1050 -293 919 -328 b 0 417 350 -328 0 6 b 867 1161 0 828 389 1161 b 1710 590 1275 1161 1618 918 l 1164 590 l 1164 725 b 867 1046 1164 903 1031 1046 b 569 725 703 1046 569 903 l 569 108 b 867 -212 569 -69 703 -212 b 1164 108 1031 -212 1164 -69 l 1164 360 l 867 360 l 867 475 l 1733 475 "},"H":{"ha":1592,"x_min":0,"x_max":0,"o":"m 869 -278 l 869 360 l 464 360 l 464 -278 l 0 -278 l 0 1114 l 464 1114 l 464 475 l 869 475 l 869 1114 l 1333 1114 l 1333 -278 "},"I":{"ha":722,"x_min":0,"x_max":0,"o":"m 464 1114 l 464 -278 l 0 -278 l 0 1114 "},"J":{"ha":1592,"x_min":0,"x_max":0,"o":"m 464 244 l 464 0 b 667 -208 464 -115 554 -208 b 869 0 779 -208 869 -115 l 869 1114 l 1333 1114 l 1333 244 b 667 -278 1333 -44 1035 -278 b 0 244 299 -278 0 -44 "},"K":{"ha":1561,"x_min":0,"x_max":0,"o":"m 464 1114 l 464 287 l 1188 1114 l 1303 1114 l 851 563 l 1303 -278 l 768 -278 l 464 252 l 464 -278 l 0 -278 l 0 1114 "},"L":{"ha":1418,"x_min":0,"x_max":0,"o":"m 0 1114 l 464 1114 l 464 -162 l 1160 -162 l 1160 -278 l 0 -278 "},"M":{"ha":1839,"x_min":0,"x_max":0,"o":"m 465 350 l 464 -278 l 0 -278 l 0 1114 l 465 1114 l 791 103 l 1117 1114 l 1581 1114 l 1581 -278 l 1117 -278 l 1117 348 l 915 -278 l 667 -278 "},"N":{"ha":1839,"x_min":0,"x_max":0,"o":"m 0 1114 l 465 1114 l 1117 143 l 1117 1114 l 1581 1114 l 1581 -278 l 1117 -278 l 464 693 l 464 -278 l 0 -278 "},"O":{"ha":1992,"x_min":0,"x_max":0,"o":"m 1164 725 b 867 1046 1164 903 1031 1046 b 569 725 703 1046 569 903 l 569 108 b 867 -212 569 -69 703 -212 b 1164 108 1031 -212 1164 -69 l 1164 725 m 867 -328 b 0 417 389 -328 0 6 b 867 1161 0 828 389 1161 b 1733 417 1344 1161 1733 828 b 867 -328 1733 6 1344 -328 "},"P":{"ha":1560,"x_min":0,"x_max":0,"o":"m 649 475 b 833 683 739 475 833 536 l 833 792 b 649 1000 833 939 739 1000 l 464 999 l 464 475 m 649 1114 b 1297 738 1007 1114 1297 946 b 649 361 1297 529 1007 361 l 464 360 l 464 -278 l 0 -278 l 0 1114 l 649 1114 "},"Q":{"ha":1992,"x_min":0,"x_max":0,"o":"m 1073 -401 b 1259 -608 1073 -570 1193 -608 l 1259 -724 b 631 -300 931 -724 681 -543 b 0 417 267 -212 0 76 b 867 1161 0 828 389 1161 b 1733 417 1344 1161 1733 828 b 1073 -306 1733 67 1452 -227 m 1164 725 b 867 1046 1164 903 1031 1046 b 569 725 703 1046 569 903 l 569 108 b 867 -212 569 -69 703 -212 b 1164 108 1031 -212 1164 -69 "},"R":{"ha":1560,"x_min":0,"x_max":0,"o":"m 649 475 b 833 683 739 475 833 536 l 833 792 b 649 1000 833 939 739 1000 l 464 999 l 464 475 m 464 360 l 464 -278 l 0 -278 l 0 1114 b 649 1114 0 1114 290 1114 b 1297 738 1007 1114 1297 946 b 994 419 1297 603 1176 485 b 1297 100 1176 352 1297 234 l 1297 -278 l 835 -278 l 833 153 b 649 361 833 300 739 361 "},"S":{"ha":1738,"x_min":0,"x_max":0,"o":"m 1 714 b 740 1161 1 961 332 1161 b 1479 714 1149 1161 1479 961 l 925 714 l 924 839 b 739 1046 922 986 829 1046 b 554 839 649 1046 554 986 b 1479 131 554 507 1479 714 b 740 -317 1479 -117 1149 -317 b 1 131 332 -317 1 -117 l 556 131 l 557 6 b 742 -201 558 -142 651 -201 b 926 6 832 -201 926 -142 b 1 714 926 338 1 131 "},"T":{"ha":1418,"x_min":0,"x_max":0,"o":"m 1160 1114 l 1160 999 l 813 999 l 813 -278 l 349 -278 l 349 999 l 0 999 l 0 1114 "},"U":{"ha":1592,"x_min":0,"x_max":0,"o":"m 0 1114 l 464 1114 l 464 0 b 667 -208 464 -115 554 -208 b 869 0 779 -208 869 -115 l 869 1114 l 1333 1114 l 1333 244 b 667 -278 1333 -44 1035 -278 b 0 244 299 -278 0 -44 "},"V":{"ha":1490,"x_min":0,"x_max":0,"o":"m 394 -278 l 0 1114 l 464 1114 l 790 -40 l 1117 1114 l 1232 1114 l 838 -278 "},"W":{"ha":2222,"x_min":0,"x_max":0,"o":"m 1502 319 l 1727 1114 l 1964 1114 l 1571 -278 l 1207 -278 l 982 517 l 757 -278 l 394 -278 l 0 1114 l 464 1114 l 689 319 l 913 1114 l 1277 1114 "},"X":{"ha":1592,"x_min":0,"x_max":0,"o":"m 1096 1114 l 1333 1114 l 872 526 l 1333 -278 l 799 -278 l 563 133 l 240 -278 l 0 -278 l 462 309 l 0 1114 l 535 1114 l 771 702 "},"Y":{"ha":1418,"x_min":0,"x_max":0,"o":"m 1033 1114 l 1160 1114 l 813 360 l 813 -278 l 349 -278 l 349 360 l 1 1114 l 512 1114 l 772 548 "},"Z":{"ha":1418,"x_min":0,"x_max":0,"o":"m 1160 -162 l 1160 -278 l 0 -278 l 0 -162 l 632 999 l 0 999 l 0 1114 l 1160 1114 l 1160 999 l 528 -162 "},"[":{"ha":896,"x_min":0,"x_max":0,"o":"m 464 -387 l 638 -387 l 638 -503 l 0 -503 l 0 1339 l 638 1339 l 638 1224 l 464 1224 "},"\\":{"ha":639,"x_min":0,"x_max":0,"o":"m 119 1114 l 492 -278 l 372 -278 l 0 1114 "},"]":{"ha":896,"x_min":0,"x_max":0,"o":"m 0 1224 l 0 1339 l 638 1339 l 638 -503 l 0 -503 l 0 -387 l 174 -387 l 174 1224 "},"^":{"ha":800,"x_min":0,"x_max":0,"o":"m 213 1114 l 439 1114 l 652 664 l 415 664 l 326 851 l 238 664 l 0 664 "},"_":{"ha":1418,"x_min":0,"x_max":0,"o":"m 0 -162 l 1160 -162 l 1160 -278 l 0 -278 "},"`":{"ha":372,"x_min":0,"x_max":0,"o":"m 319 664 l 184 664 l 0 1114 l 225 1114 "},"a":{"ha":1426,"x_min":0,"x_max":0,"o":"m 833 356 b 657 535 833 499 728 535 b 479 356 585 535 479 499 l 479 25 b 657 -156 479 -118 585 -156 b 835 25 728 -156 835 -118 m 530 687 b 831 601 660 687 749 644 l 831 653 l 1279 653 l 1279 -278 l 831 -278 l 831 -224 b 533 -304 735 -279 632 -304 b 310 -258 454 -304 377 -288 b 0 200 269 -240 0 -122 b 530 687 0 433 226 687 "},"b":{"ha":1426,"x_min":0,"x_max":0,"o":"m 444 25 b 622 -156 444 -118 551 -156 b 800 25 694 -156 800 -118 l 800 356 b 622 535 800 499 694 535 b 446 356 551 535 446 499 l 444 25 m 449 601 b 749 687 530 644 619 687 b 1279 200 1053 687 1279 433 b 969 -258 1279 -122 1010 -240 b 746 -304 902 -288 825 -304 b 449 -224 647 -304 545 -279 l 449 -278 l 0 -278 l 0 1114 l 449 1114 l 449 601 "},"c":{"ha":1469,"x_min":0,"x_max":0,"o":"m 472 -4 b 658 -212 472 -151 568 -212 b 843 -4 749 -212 843 -151 l 843 119 l 1316 119 b 661 -328 1271 -134 995 -328 b 0 192 296 -328 0 -96 b 661 711 0 479 296 711 b 1316 264 995 711 1271 517 l 843 264 l 843 389 b 658 596 843 536 749 596 b 474 389 568 596 474 536 l 472 -4 "},"d":{"ha":1426,"x_min":0,"x_max":0,"o":"m 833 356 b 657 535 833 499 728 535 b 479 356 585 535 479 499 l 479 25 b 657 -156 479 -118 585 -156 b 835 25 728 -156 835 -118 m 530 687 b 831 601 660 687 749 644 l 831 1114 l 1279 1114 l 1279 -278 l 831 -278 l 831 -224 b 533 -304 735 -279 632 -304 b 310 -258 454 -304 377 -288 b 0 200 269 -240 0 -122 b 530 687 0 433 226 687 "},"e":{"ha":1469,"x_min":0,"x_max":0,"o":"m 1307 46 b 665 -333 1228 -172 971 -333 b 0 186 297 -333 0 -101 b 665 706 0 474 297 706 b 1332 181 1033 706 1332 468 l 481 181 l 481 -10 b 669 -217 481 -179 603 -217 b 857 -10 736 -217 857 -179 b 856 46 857 42 856 46 m 857 385 b 669 592 857 554 736 592 b 481 385 603 592 481 554 l 481 325 l 858 325 b 857 385 859 335 857 333 "},"f":{"ha":1088,"x_min":0,"x_max":0,"o":"m 940 982 b 882 990 921 987 902 990 b 696 783 815 990 696 953 l 940 783 l 940 646 l 697 646 l 697 -278 l 244 -278 l 244 646 l 0 646 l 0 783 l 244 783 b 568 1107 244 963 389 1107 l 940 1107 "},"g":{"ha":1426,"x_min":0,"x_max":0,"o":"m 833 356 b 657 535 833 499 728 535 b 479 356 585 535 479 499 l 479 25 b 657 -156 479 -118 585 -156 b 835 25 728 -156 835 -118 m 530 687 b 831 601 660 687 749 644 l 831 653 l 1279 653 l 1279 -219 b 644 -739 1279 -507 1013 -739 b 8 -360 339 -739 88 -578 l 460 -360 b 458 -415 460 -360 458 -364 b 644 -622 458 -585 578 -622 b 831 -415 711 -622 831 -585 l 831 -224 b 533 -304 735 -279 632 -304 b 310 -258 454 -304 377 -288 b 0 200 269 -240 0 -122 b 530 687 0 433 226 687 "},"h":{"ha":1465,"x_min":0,"x_max":0,"o":"m 449 551 b 818 690 536 629 663 690 b 1318 226 991 690 1321 586 l 1318 -278 l 869 -278 l 869 331 b 662 501 869 411 786 501 b 449 348 548 501 461 424 l 449 -278 l -1 -278 l -1 1114 l 449 1114 l 449 551 "},"i":{"ha":703,"x_min":0,"x_max":0,"o":"m 0 1114 l 453 1114 l 453 831 l 0 831 m 1 647 l 453 647 l 453 -278 l 1 -278 "},"j":{"ha":701,"x_min":0,"x_max":0,"o":"m -186 -622 b 0 -415 -119 -622 0 -585 l 0 647 l 451 647 l 451 -224 b -186 -739 451 -511 182 -739 l -186 -622 m -1 1114 l 451 1114 l 451 831 l -1 831 "},"k":{"ha":1372,"x_min":0,"x_max":0,"o":"m -1 -278 l -1 1114 l 449 1114 l 449 141 l 988 647 l 1225 647 l 792 240 l 1225 -278 l 776 -278 l 449 114 l 449 -278 "},"l":{"ha":701,"x_min":0,"x_max":0,"o":"m -1 -278 l -1 1251 l 451 1251 l 451 -278 "},"m":{"ha":2163,"x_min":0,"x_max":0,"o":"m 783 -278 l 782 349 b 617 501 774 435 704 501 b 449 331 524 501 449 425 l 449 -278 l 0 -278 l -1 649 l 449 649 l 449 614 b 732 690 526 659 622 690 b 1130 521 843 690 1019 647 b 1515 690 1221 624 1360 690 b 2015 226 1792 690 2015 482 l 2015 -278 l 1567 -278 l 1567 331 b 1400 501 1567 425 1493 501 b 1232 331 1307 501 1232 425 l 1232 -278 "},"n":{"ha":1465,"x_min":0,"x_max":0,"o":"m 449 551 b 818 690 536 629 663 690 b 1318 226 991 690 1321 586 l 1318 -278 l 869 -278 l 869 331 b 663 501 869 411 786 501 b 447 331 539 501 447 411 b 449 -278 447 292 449 -278 l 0 -278 l -1 649 l 449 649 l 449 551 "},"o":{"ha":1469,"x_min":0,"x_max":0,"o":"m 472 -4 b 658 -212 472 -151 568 -212 b 843 -4 749 -212 843 -151 l 843 389 b 658 596 843 536 749 596 b 474 389 568 596 474 536 l 472 -4 m 661 711 b 1322 192 1026 711 1322 479 b 661 -328 1322 -96 1026 -328 b 0 192 296 -328 0 -96 b 661 711 0 479 296 711 "},"p":{"ha":1426,"x_min":0,"x_max":0,"o":"m 449 601 b 749 687 530 644 619 687 b 1279 200 1053 687 1279 433 b 969 -258 1279 -122 1010 -240 b 746 -304 902 -288 825 -304 b 449 -224 647 -304 545 -279 l 449 -739 l 0 -739 l 0 653 l 449 653 l 449 601 m 444 25 b 622 -156 444 -118 551 -156 b 800 25 694 -156 800 -118 l 800 356 b 622 535 800 499 694 535 b 446 356 551 535 446 499 l 444 25 "},"q":{"ha":1426,"x_min":0,"x_max":0,"o":"m 530 687 b 831 601 660 687 749 644 l 831 653 l 1279 653 l 1279 -739 l 831 -739 l 831 -224 b 533 -304 735 -279 632 -304 b 310 -258 454 -304 377 -288 b 0 200 269 -240 0 -122 b 530 687 0 433 226 687 m 833 356 b 657 535 833 499 728 535 b 479 356 585 535 479 499 l 479 25 b 657 -156 479 -118 585 -156 b 835 25 728 -156 835 -118 "},"r":{"ha":965,"x_min":0,"x_max":0,"o":"m 818 501 l 663 501 b 447 331 539 501 447 411 b 449 -278 447 292 449 -278 l 0 -278 l -1 649 l 449 649 l 449 551 b 818 690 536 629 664 691 "},"s":{"ha":1372,"x_min":0,"x_max":0,"o":"m 1225 -6 b 613 -329 1225 -275 890 -329 b 0 -6 335 -329 98 -196 l 424 -6 l 424 -75 b 610 -215 424 -153 507 -215 b 796 -75 713 -215 796 -153 b 0 388 796 135 0 28 b 613 711 0 657 335 711 b 1225 388 890 711 1127 578 l 801 388 l 801 457 b 615 597 801 535 718 597 b 429 457 513 597 429 535 b 1225 -6 429 247 1225 354 "},"t":{"ha":1088,"x_min":0,"x_max":0,"o":"m 244 646 l 0 646 l 0 783 l 244 783 l 244 971 l 697 971 l 697 783 l 940 783 l 940 646 l 697 646 l 697 -278 l 244 -278 "},"u":{"ha":1465,"x_min":0,"x_max":0,"o":"m 868 -181 b 498 -320 781 -258 653 -320 b -1 144 326 -320 -4 -215 l -1 649 l 447 649 l 447 40 b 654 -131 447 -40 531 -131 b 869 40 778 -131 869 -40 b 868 649 869 79 868 649 l 1317 649 l 1318 -278 l 868 -278 l 868 -181 "},"v":{"ha":1465,"x_min":0,"x_max":0,"o":"m 443 -278 l 3 647 l 451 647 l 767 -15 l 1081 647 l 1318 647 l 879 -278 "},"w":{"ha":1639,"x_min":0,"x_max":0,"o":"m 1151 274 l 1254 649 l 1492 649 l 1238 -278 l 854 -278 l 751 97 l 649 -278 l 265 -278 l 11 649 l 460 649 l 563 274 l 665 649 l 1049 649 "},"x":{"ha":1372,"x_min":0,"x_max":0,"o":"m 240 -278 l 3 -278 l 436 129 l 3 647 l 451 647 l 687 365 l 988 647 l 1225 647 l 792 240 l 1225 -278 l 776 -278 l 541 4 "},"y":{"ha":1465,"x_min":0,"x_max":0,"o":"m 423 -739 l 543 -487 l 3 647 l 451 647 l 767 -15 l 1081 647 l 1318 647 l 662 -736 "},"z":{"ha":1465,"x_min":0,"x_max":0,"o":"m 3 647 l 1318 647 l 1318 532 l 638 -140 l 1315 -140 l 1315 -278 l 0 -278 l 0 -162 l 681 510 l 3 510 "},"{":{"ha":1069,"x_min":0,"x_max":0,"o":"m 174 1167 b 435 1339 174 1263 290 1339 l 811 1339 l 811 1224 b 638 1108 715 1224 638 1172 l 638 533 b 464 418 638 469 560 418 b 638 303 560 418 638 367 l 638 -272 b 811 -387 638 -336 715 -387 l 811 -503 l 435 -503 b 174 -331 290 -503 174 -426 l 174 246 b 0 361 174 310 96 361 l 0 476 b 174 592 96 476 174 528 l 174 1167 "},"|":{"ha":724,"x_min":0,"x_max":0,"o":"m 464 1114 l 464 -503 l 0 -503 l 0 1114 "},"}":{"ha":1069,"x_min":0,"x_max":0,"o":"m 638 592 b 811 476 638 528 715 476 l 811 361 b 638 246 715 361 638 310 l 638 -331 b 376 -503 638 -426 521 -503 l 0 -503 l 0 -387 b 174 -272 96 -387 174 -336 l 174 303 b 347 418 174 367 251 418 b 174 533 251 418 174 469 l 174 1108 b 0 1224 174 1172 96 1224 l 0 1339 l 376 1339 b 638 1167 521 1339 638 1263 "},"~":{"ha":1069,"x_min":0,"x_max":0,"o":"m 0 850 b 212 990 62 957 135 990 b 598 903 336 990 473 903 b 810 1044 675 903 747 936 l 922 849 b 711 708 860 741 788 708 b 324 796 586 708 449 796 b 113 655 247 796 175 762 l 0 850 "}," ":{"ha":1389,"x_min":0,"x_max":0,"o":""},"¡":{"ha":701,"x_min":0,"x_max":0,"o":"m -1 -597 l 89 328 l 360 328 l 450 -597 m -1 511 l -1 794 l 451 794 l 451 511 "},"¢":{"ha":1389,"x_min":0,"x_max":0,"o":""},"¦":{"ha":724,"x_min":0,"x_max":0,"o":"m 0 475 l 0 1114 l 464 1114 l 464 475 m 464 -503 l 0 -503 l 0 360 l 464 360 "},"©":{"ha":2022,"x_min":0,"x_max":0,"o":"m 886 -379 b 1669 404 1318 -379 1669 -28 b 886 1188 1669 836 1318 1188 b 103 404 454 1188 103 836 b 886 -379 103 -28 454 -379 m 1806 404 b 886 -515 1806 -103 1393 -515 b -33 404 379 -515 -33 -103 b 886 1324 -33 911 379 1324 b 1806 404 1393 1324 1806 911 m 700 208 b 886 0 700 61 796 0 b 1071 208 976 0 1071 61 l 1071 332 l 1544 332 b 889 -115 1499 79 1223 -115 b 228 404 524 -115 228 117 b 889 924 228 692 524 924 b 1544 476 1223 924 1499 730 l 1071 476 l 1071 601 b 886 808 1071 749 976 808 b 701 601 796 808 702 749 l 700 208 "},"ª":{"ha":1426,"x_min":0,"x_max":0,"o":""},"«":{"ha":924,"x_min":0,"x_max":0,"o":"m 695 844 l 777 763 l 489 475 l 777 187 l 695 106 l 326 475 m 369 844 l 451 763 l 163 475 l 451 187 l 369 106 l 0 475 "},"¬":{"ha":843,"x_min":0,"x_max":0,"o":"m 696 360 l 581 360 l 581 679 l 0 679 l 0 794 l 696 794 "},"­":{"ha":669,"x_min":0,"x_max":0,"o":"m 0 475 l 522 475 l 522 360 l 0 360 "},"®":{"ha":0,"x_min":0,"x_max":0,"o":"m -78 1011 b 31 942 -4 1011 31 988 b -25 879 31 911 10 888 l 32 774 l -37 774 l -86 871 l -117 871 l -117 774 l -179 774 l -179 1011 l -78 1011 m -85 1103 b 147 889 43 1103 147 1007 b -85 675 147 771 43 675 b -315 889 -212 675 -315 771 b -85 1103 -315 1007 -212 1103 m 103 889 b -85 1063 103 985 18 1063 b -271 889 -187 1063 -271 985 b -85 715 -271 793 -187 715 b 103 889 18 715 103 793 m -86 906 b -33 939 -50 906 -33 915 b -89 974 -33 964 -51 974 l -117 974 l -117 906 "},"¯":{"ha":1418,"x_min":0,"x_max":0,"o":"m 0 1114 l 1160 1114 l 1160 999 l 0 999 "},"°":{"ha":597,"x_min":0,"x_max":0,"o":"m 0 1001 b 225 1226 0 1125 101 1226 b 450 1001 349 1226 450 1125 b 225 776 450 878 349 776 b 0 1001 101 776 0 878 m 113 1001 b 225 889 113 939 163 889 b 338 1001 288 889 338 939 b 225 1114 338 1064 288 1114 b 113 1001 163 1114 113 1064 "},"±":{"ha":843,"x_min":0,"x_max":0,"o":"m 0 69 l 0 185 l 290 185 l 290 360 l 0 360 l 0 475 l 290 475 l 290 765 l 406 765 l 406 475 l 696 475 l 696 360 l 406 360 l 406 185 l 696 185 l 696 69 "},"²":{"ha":1560,"x_min":0,"x_max":0,"o":""},"³":{"ha":1560,"x_min":0,"x_max":0,"o":""},"´":{"ha":372,"x_min":0,"x_max":0,"o":"m 319 1114 l 135 664 l 0 664 l 94 1114 "},"µ":{"ha":1465,"x_min":0,"x_max":0,"o":"m 868 -181 b 572 -320 798 -258 696 -320 b 447 -296 537 -320 493 -313 l 447 -743 l -1 -743 l -1 649 l 447 649 l 447 40 b 654 -131 447 -40 531 -131 b 869 40 778 -131 869 -40 b 868 649 869 79 868 649 l 1317 649 l 1318 -278 l 868 -278 l 868 -181 "},"¶":{"ha":2389,"x_min":0,"x_max":0,"o":"m 833 475 l 833 999 l 649 1000 b 464 792 558 1000 466 939 l 463 683 b 647 475 461 536 557 475 m 2131 -278 l 1667 -278 l 1667 999 l 1297 999 l 1297 -278 l 833 -278 l 833 360 l 463 360 b 0 736 104 360 0 528 b 463 1114 0 944 104 1114 l 2131 1114 "},"·":{"ha":372,"x_min":0,"x_max":0,"o":"m 0 419 b 113 532 0 482 50 532 b 225 419 175 532 225 482 b 113 307 225 357 175 307 b 0 419 50 307 0 357 "},"¸":{"ha":1469,"x_min":0,"x_max":0,"o":"m 570 -497 b 476 -422 539 -472 507 -447 l 550 -234 l 644 -308 l 608 -399 b 661 -397 626 -398 643 -397 b 1015 -568 857 -397 1015 -474 b 661 -739 1015 -662 857 -739 b 476 -714 593 -739 530 -730 l 570 -639 b 661 -669 594 -658 626 -669 b 791 -568 732 -669 791 -624 b 661 -467 791 -512 732 -467 b 570 -497 626 -467 594 -478 "},"¹":{"ha":896,"x_min":0,"x_max":0,"o":""},"º":{"ha":597,"x_min":0,"x_max":0,"o":"m 0 419 b 225 644 0 543 101 644 b 450 419 349 644 450 543 b 225 194 450 296 349 194 b 0 419 101 194 0 296 m 113 419 b 225 307 113 357 163 307 b 338 419 288 307 338 357 b 225 532 338 482 288 532 b 113 419 163 532 113 482 "},"»":{"ha":924,"x_min":0,"x_max":0,"o":"m 82 106 l 0 187 l 288 475 l 0 763 l 82 844 l 451 475 m 408 106 l 326 187 l 614 475 l 326 763 l 408 844 l 777 475 "},"¿":{"ha":1560,"x_min":0,"x_max":0,"o":"m 875 96 b 464 -281 558 80 464 -83 b 649 -489 464 -428 558 -489 b 831 -281 736 -489 829 -428 l 831 -225 l 1294 -225 b 832 -603 1294 -433 1190 -603 l 463 -603 b 0 -225 104 -603 0 -433 b 422 151 0 -25 96 140 l 422 322 l 875 322 l 875 96 m 422 794 l 875 794 l 875 511 l 422 511 "},"À":{"ha":1232,"x_min":0,"x_max":0,"o":"m 313 876 l 109 157 l 516 157 m 709 1114 l 1103 -278 l 639 -278 l 549 42 l 76 42 l -14 -278 l -129 -278 l 264 1114 "},"Á":{"ha":1232,"x_min":0,"x_max":0,"o":"m 313 876 l 109 157 l 516 157 m 709 1114 l 1103 -278 l 639 -278 l 549 42 l 76 42 l -14 -278 l -129 -278 l 264 1114 "},"Â":{"ha":1232,"x_min":0,"x_max":0,"o":"m 313 876 l 109 157 l 516 157 m 709 1114 l 1103 -278 l 639 -278 l 549 42 l 76 42 l -14 -278 l -129 -278 l 264 1114 "},"Ã":{"ha":1232,"x_min":0,"x_max":0,"o":"m 313 876 l 109 157 l 516 157 m 709 1114 l 1103 -278 l 639 -278 l 549 42 l 76 42 l -14 -278 l -129 -278 l 264 1114 "},"Ä":{"ha":1232,"x_min":0,"x_max":0,"o":"m 313 876 l 109 157 l 516 157 m 709 1114 l 1103 -278 l 639 -278 l 549 42 l 76 42 l -14 -278 l -129 -278 l 264 1114 "},"Å":{"ha":1232,"x_min":0,"x_max":0,"o":"m 313 876 l 109 157 l 516 157 m 709 1114 l 1103 -278 l 639 -278 l 549 42 l 76 42 l -14 -278 l -129 -278 l 264 1114 "},"Ç":{"ha":1981,"x_min":0,"x_max":0,"o":"m 569 108 b 867 -212 569 -69 703 -212 b 1164 108 1031 -212 1164 -69 l 1164 299 l 1722 299 b 867 -328 1656 -56 1298 -328 b 0 417 389 -328 0 6 b 867 1161 0 828 389 1161 b 1717 536 1297 1161 1650 890 l 1158 536 l 1164 725 b 867 1046 1164 903 1031 1046 b 569 725 703 1046 569 903 "},"È":{"ha":1418,"x_min":0,"x_max":0,"o":"m 1160 1114 l 1160 999 l 464 999 l 464 475 l 986 475 l 986 360 l 464 360 l 464 -162 l 1160 -162 l 1160 -278 l 0 -278 l 0 1114 "},"É":{"ha":1418,"x_min":0,"x_max":0,"o":"m 1160 1114 l 1160 999 l 464 999 l 464 475 l 986 475 l 986 360 l 464 360 l 464 -162 l 1160 -162 l 1160 -278 l 0 -278 l 0 1114 "},"Ê":{"ha":1418,"x_min":0,"x_max":0,"o":"m 1160 1114 l 1160 999 l 464 999 l 464 475 l 986 475 l 986 360 l 464 360 l 464 -162 l 1160 -162 l 1160 -278 l 0 -278 l 0 1114 "},"Ë":{"ha":1418,"x_min":0,"x_max":0,"o":"m 1160 1114 l 1160 999 l 464 999 l 464 475 l 986 475 l 986 360 l 464 360 l 464 -162 l 1160 -162 l 1160 -278 l 0 -278 l 0 1114 "},"Ì":{"ha":722,"x_min":0,"x_max":0,"o":"m 464 1114 l 464 -278 l 0 -278 l 0 1114 "},"Í":{"ha":722,"x_min":0,"x_max":0,"o":"m 464 1114 l 464 -278 l 0 -278 l 0 1114 "},"Î":{"ha":722,"x_min":0,"x_max":0,"o":"m 464 1114 l 464 -278 l 0 -278 l 0 1114 "},"Ï":{"ha":722,"x_min":0,"x_max":0,"o":"m 464 1114 l 464 -278 l 0 -278 l 0 1114 "},"Ð":{"ha":1592,"x_min":0,"x_max":0,"o":"m 464 -208 l 667 -208 b 869 0 779 -208 869 -115 l 869 836 b 667 1044 869 951 779 1044 l 464 1044 m 667 1114 b 1333 592 1035 1114 1333 881 l 1333 244 b 667 -278 1333 -44 1035 -278 l 0 -278 l 0 1114 l 667 1114 "},"Ñ":{"ha":1839,"x_min":0,"x_max":0,"o":"m 0 1114 l 465 1114 l 1117 143 l 1117 1114 l 1581 1114 l 1581 -278 l 1117 -278 l 464 693 l 464 -278 l 0 -278 "},"Ò":{"ha":1992,"x_min":0,"x_max":0,"o":"m 1164 725 b 867 1046 1164 903 1031 1046 b 569 725 703 1046 569 903 l 569 108 b 867 -212 569 -69 703 -212 b 1164 108 1031 -212 1164 -69 l 1164 725 m 867 -328 b 0 417 389 -328 0 6 b 867 1161 0 828 389 1161 b 1733 417 1344 1161 1733 828 b 867 -328 1733 6 1344 -328 "},"Ó":{"ha":1992,"x_min":0,"x_max":0,"o":"m 1164 725 b 867 1046 1164 903 1031 1046 b 569 725 703 1046 569 903 l 569 108 b 867 -212 569 -69 703 -212 b 1164 108 1031 -212 1164 -69 l 1164 725 m 867 -328 b 0 417 389 -328 0 6 b 867 1161 0 828 389 1161 b 1733 417 1344 1161 1733 828 b 867 -328 1733 6 1344 -328 "},"Ô":{"ha":1992,"x_min":0,"x_max":0,"o":"m 1164 725 b 867 1046 1164 903 1031 1046 b 569 725 703 1046 569 903 l 569 108 b 867 -212 569 -69 703 -212 b 1164 108 1031 -212 1164 -69 l 1164 725 m 867 -328 b 0 417 389 -328 0 6 b 867 1161 0 828 389 1161 b 1733 417 1344 1161 1733 828 b 867 -328 1733 6 1344 -328 "},"Õ":{"ha":1992,"x_min":0,"x_max":0,"o":"m 1164 725 b 867 1046 1164 903 1031 1046 b 569 725 703 1046 569 903 l 569 108 b 867 -212 569 -69 703 -212 b 1164 108 1031 -212 1164 -69 l 1164 725 m 867 -328 b 0 417 389 -328 0 6 b 867 1161 0 828 389 1161 b 1733 417 1344 1161 1733 828 b 867 -328 1733 6 1344 -328 "},"Ö":{"ha":1992,"x_min":0,"x_max":0,"o":"m 1164 725 b 867 1046 1164 903 1031 1046 b 569 725 703 1046 569 903 l 569 108 b 867 -212 569 -69 703 -212 b 1164 108 1031 -212 1164 -69 l 1164 725 m 867 -328 b 0 417 389 -328 0 6 b 867 1161 0 828 389 1161 b 1733 417 1344 1161 1733 828 b 867 -328 1733 6 1344 -328 "},"Ù":{"ha":1592,"x_min":0,"x_max":0,"o":"m 0 1114 l 464 1114 l 464 0 b 667 -208 464 -115 554 -208 b 869 0 779 -208 869 -115 l 869 1114 l 1333 1114 l 1333 244 b 667 -278 1333 -44 1035 -278 b 0 244 299 -278 0 -44 "},"Ú":{"ha":1592,"x_min":0,"x_max":0,"o":"m 0 1114 l 464 1114 l 464 0 b 667 -208 464 -115 554 -208 b 869 0 779 -208 869 -115 l 869 1114 l 1333 1114 l 1333 244 b 667 -278 1333 -44 1035 -278 b 0 244 299 -278 0 -44 "},"Û":{"ha":1592,"x_min":0,"x_max":0,"o":"m 0 1114 l 464 1114 l 464 0 b 667 -208 464 -115 554 -208 b 869 0 779 -208 869 -115 l 869 1114 l 1333 1114 l 1333 244 b 667 -278 1333 -44 1035 -278 b 0 244 299 -278 0 -44 "},"Ü":{"ha":1592,"x_min":0,"x_max":0,"o":"m 0 1114 l 464 1114 l 464 0 b 667 -208 464 -115 554 -208 b 869 0 779 -208 869 -115 l 869 1114 l 1333 1114 l 1333 244 b 667 -278 1333 -44 1035 -278 b 0 244 299 -278 0 -44 "},"Ý":{"ha":1418,"x_min":0,"x_max":0,"o":"m 1033 1114 l 1160 1114 l 813 360 l 813 -278 l 349 -278 l 349 360 l 1 1114 l 512 1114 l 772 548 "},"à":{"ha":1389,"x_min":0,"x_max":0,"o":"m 833 356 b 657 535 833 499 728 535 b 479 356 585 535 479 499 l 479 25 b 657 -156 479 -118 585 -156 b 835 25 728 -156 835 -118 m 530 687 b 831 601 660 687 749 644 l 831 653 l 1279 653 l 1279 -278 l 831 -278 l 831 -224 b 533 -304 735 -279 632 -304 b 310 -258 454 -304 377 -288 b 0 200 269 -240 0 -122 b 530 687 0 433 226 687 "},"á":{"ha":1389,"x_min":0,"x_max":0,"o":"m 833 356 b 657 535 833 499 728 535 b 479 356 585 535 479 499 l 479 25 b 657 -156 479 -118 585 -156 b 835 25 728 -156 835 -118 m 530 687 b 831 601 660 687 749 644 l 831 653 l 1279 653 l 1279 -278 l 831 -278 l 831 -224 b 533 -304 735 -279 632 -304 b 310 -258 454 -304 377 -288 b 0 200 269 -240 0 -122 b 530 687 0 433 226 687 "},"â":{"ha":1389,"x_min":0,"x_max":0,"o":"m 833 356 b 657 535 833 499 728 535 b 479 356 585 535 479 499 l 479 25 b 657 -156 479 -118 585 -156 b 835 25 728 -156 835 -118 m 530 687 b 831 601 660 687 749 644 l 831 653 l 1279 653 l 1279 -278 l 831 -278 l 831 -224 b 533 -304 735 -279 632 -304 b 310 -258 454 -304 377 -288 b 0 200 269 -240 0 -122 b 530 687 0 433 226 687 "},"ã":{"ha":1389,"x_min":0,"x_max":0,"o":"m 833 356 b 657 535 833 499 728 535 b 479 356 585 535 479 499 l 479 25 b 657 -156 479 -118 585 -156 b 835 25 728 -156 835 -118 m 530 687 b 831 601 660 687 749 644 l 831 653 l 1279 653 l 1279 -278 l 831 -278 l 831 -224 b 533 -304 735 -279 632 -304 b 310 -258 454 -304 377 -288 b 0 200 269 -240 0 -122 b 530 687 0 433 226 687 "},"ä":{"ha":1389,"x_min":0,"x_max":0,"o":"m 833 356 b 657 535 833 499 728 535 b 479 356 585 535 479 499 l 479 25 b 657 -156 479 -118 585 -156 b 835 25 728 -156 835 -118 m 530 687 b 831 601 660 687 749 644 l 831 653 l 1279 653 l 1279 -278 l 831 -278 l 831 -224 b 533 -304 735 -279 632 -304 b 310 -258 454 -304 377 -288 b 0 200 269 -240 0 -122 b 530 687 0 433 226 687 "},"å":{"ha":1389,"x_min":0,"x_max":0,"o":"m 833 356 b 657 535 833 499 728 535 b 479 356 585 535 479 499 l 479 25 b 657 -156 479 -118 585 -156 b 835 25 728 -156 835 -118 m 530 687 b 831 601 660 687 749 644 l 831 653 l 1279 653 l 1279 -278 l 831 -278 l 831 -224 b 533 -304 735 -279 632 -304 b 310 -258 454 -304 377 -288 b 0 200 269 -240 0 -122 b 530 687 0 433 226 687 "},"ç":{"ha":1469,"x_min":0,"x_max":0,"o":"m 472 -4 b 658 -212 472 -151 568 -212 b 843 -4 749 -212 843 -151 l 843 119 l 1316 119 b 661 -328 1271 -134 995 -328 b 0 192 296 -328 0 -96 b 661 711 0 479 296 711 b 1316 264 995 711 1271 517 l 843 264 l 843 389 b 658 596 843 536 749 596 b 474 389 568 596 474 536 l 472 -4 "},"è":{"ha":1389,"x_min":0,"x_max":0,"o":"m 1307 46 b 665 -333 1228 -172 971 -333 b 0 186 297 -333 0 -101 b 665 706 0 474 297 706 b 1332 181 1033 706 1332 468 l 481 181 l 481 -10 b 669 -217 481 -179 603 -217 b 857 -10 736 -217 857 -179 b 856 46 857 42 856 46 m 857 385 b 669 592 857 554 736 592 b 481 385 603 592 481 554 l 481 325 l 858 325 b 857 385 859 335 857 333 "},"é":{"ha":1389,"x_min":0,"x_max":0,"o":"m 1307 46 b 665 -333 1228 -172 971 -333 b 0 186 297 -333 0 -101 b 665 706 0 474 297 706 b 1332 181 1033 706 1332 468 l 481 181 l 481 -10 b 669 -217 481 -179 603 -217 b 857 -10 736 -217 857 -179 b 856 46 857 42 856 46 m 857 385 b 669 592 857 554 736 592 b 481 385 603 592 481 554 l 481 325 l 858 325 b 857 385 859 335 857 333 "},"ê":{"ha":1389,"x_min":0,"x_max":0,"o":"m 1307 46 b 665 -333 1228 -172 971 -333 b 0 186 297 -333 0 -101 b 665 706 0 474 297 706 b 1332 181 1033 706 1332 468 l 481 181 l 481 -10 b 669 -217 481 -179 603 -217 b 857 -10 736 -217 857 -179 b 856 46 857 42 856 46 m 857 385 b 669 592 857 554 736 592 b 481 385 603 592 481 554 l 481 325 l 858 325 b 857 385 859 335 857 333 "},"ë":{"ha":1389,"x_min":0,"x_max":0,"o":"m 1307 46 b 665 -333 1228 -172 971 -333 b 0 186 297 -333 0 -101 b 665 706 0 474 297 706 b 1332 181 1033 706 1332 468 l 481 181 l 481 -10 b 669 -217 481 -179 603 -217 b 857 -10 736 -217 857 -179 b 856 46 857 42 856 46 m 857 385 b 669 592 857 554 736 592 b 481 385 603 592 481 554 l 481 325 l 858 325 b 857 385 859 335 857 333 "},"ì":{"ha":703,"x_min":0,"x_max":0,"o":"m 0 1114 l 453 1114 l 453 831 l 0 831 m 1 647 l 453 647 l 453 -278 l 1 -278 "},"í":{"ha":703,"x_min":0,"x_max":0,"o":"m 0 1114 l 453 1114 l 453 831 l 0 831 m 1 647 l 453 647 l 453 -278 l 1 -278 "},"î":{"ha":703,"x_min":0,"x_max":0,"o":"m 0 1114 l 453 1114 l 453 831 l 0 831 m 1 647 l 453 647 l 453 -278 l 1 -278 "},"ï":{"ha":703,"x_min":0,"x_max":0,"o":"m 0 1114 l 453 1114 l 453 831 l 0 831 m 1 647 l 453 647 l 453 -278 l 1 -278 "},"ñ":{"ha":1465,"x_min":0,"x_max":0,"o":"m 449 551 b 818 690 536 629 663 690 b 1318 226 991 690 1321 586 l 1318 -278 l 869 -278 l 869 331 b 663 501 869 411 786 501 b 447 331 539 501 447 411 b 449 -278 447 292 449 -278 l 0 -278 l -1 649 l 449 649 l 449 551 "},"ò":{"ha":1469,"x_min":0,"x_max":0,"o":"m 472 -4 b 658 -212 472 -151 568 -212 b 843 -4 749 -212 843 -151 l 843 389 b 658 596 843 536 749 596 b 474 389 568 596 474 536 l 472 -4 m 661 711 b 1322 192 1026 711 1322 479 b 661 -328 1322 -96 1026 -328 b 0 192 296 -328 0 -96 b 661 711 0 479 296 711 "},"ó":{"ha":1469,"x_min":0,"x_max":0,"o":"m 472 -4 b 658 -212 472 -151 568 -212 b 843 -4 749 -212 843 -151 l 843 389 b 658 596 843 536 749 596 b 474 389 568 596 474 536 l 472 -4 m 661 711 b 1322 192 1026 711 1322 479 b 661 -328 1322 -96 1026 -328 b 0 192 296 -328 0 -96 b 661 711 0 479 296 711 "},"ô":{"ha":1469,"x_min":0,"x_max":0,"o":"m 472 -4 b 658 -212 472 -151 568 -212 b 843 -4 749 -212 843 -151 l 843 389 b 658 596 843 536 749 596 b 474 389 568 596 474 536 l 472 -4 m 661 711 b 1322 192 1026 711 1322 479 b 661 -328 1322 -96 1026 -328 b 0 192 296 -328 0 -96 b 661 711 0 479 296 711 "},"õ":{"ha":1469,"x_min":0,"x_max":0,"o":"m 472 -4 b 658 -212 472 -151 568 -212 b 843 -4 749 -212 843 -151 l 843 389 b 658 596 843 536 749 596 b 474 389 568 596 474 536 l 472 -4 m 661 711 b 1322 192 1026 711 1322 479 b 661 -328 1322 -96 1026 -328 b 0 192 296 -328 0 -96 b 661 711 0 479 296 711 "},"ö":{"ha":1469,"x_min":0,"x_max":0,"o":"m 472 -4 b 658 -212 472 -151 568 -212 b 843 -4 749 -212 843 -151 l 843 389 b 658 596 843 536 749 596 b 474 389 568 596 474 536 l 472 -4 m 661 711 b 1322 192 1026 711 1322 479 b 661 -328 1322 -96 1026 -328 b 0 192 296 -328 0 -96 b 661 711 0 479 296 711 "},"÷":{"ha":843,"x_min":0,"x_max":0,"o":"m 290 765 l 406 765 l 406 650 l 290 650 m 406 185 l 406 69 l 290 69 l 290 185 m 696 360 l 0 360 l 0 475 l 696 475 "},"ù":{"ha":1465,"x_min":0,"x_max":0,"o":"m 868 -181 b 498 -320 781 -258 653 -320 b -1 144 326 -320 -4 -215 l -1 649 l 447 649 l 447 40 b 654 -131 447 -40 531 -131 b 869 40 778 -131 869 -40 b 868 649 869 79 868 649 l 1317 649 l 1318 -278 l 868 -278 l 868 -181 "},"ú":{"ha":1465,"x_min":0,"x_max":0,"o":"m 868 -181 b 498 -320 781 -258 653 -320 b -1 144 326 -320 -4 -215 l -1 649 l 447 649 l 447 40 b 654 -131 447 -40 531 -131 b 869 40 778 -131 869 -40 b 868 649 869 79 868 649 l 1317 649 l 1318 -278 l 868 -278 l 868 -181 "},"û":{"ha":1465,"x_min":0,"x_max":0,"o":"m 868 -181 b 498 -320 781 -258 653 -320 b -1 144 326 -320 -4 -215 l -1 649 l 447 649 l 447 40 b 654 -131 447 -40 531 -131 b 869 40 778 -131 869 -40 b 868 649 869 79 868 649 l 1317 649 l 1318 -278 l 868 -278 l 868 -181 "},"ü":{"ha":1465,"x_min":0,"x_max":0,"o":"m 868 -181 b 498 -320 781 -258 653 -320 b -1 144 326 -320 -4 -215 l -1 649 l 447 649 l 447 40 b 654 -131 447 -40 531 -131 b 869 40 778 -131 869 -40 b 868 649 869 79 868 649 l 1317 649 l 1318 -278 l 868 -278 l 868 -181 "},"ý":{"ha":1465,"x_min":0,"x_max":0,"o":"m 868 -181 b 498 -320 781 -258 653 -320 b -1 144 326 -320 -4 -215 l -1 649 l 447 649 l 447 40 b 654 -131 447 -40 531 -131 b 869 40 778 -131 869 -40 b 868 649 869 79 868 649 l 1317 649 l 1318 -278 l 868 -278 l 868 -181 "},"ÿ":{"ha":1465,"x_min":0,"x_max":0,"o":"m 423 -739 l 543 -487 l 3 647 l 451 647 l 767 -15 l 1081 647 l 1318 647 l 662 -736 "},"Ā":{"ha":1389,"x_min":0,"x_max":0,"o":""},"ā":{"ha":1389,"x_min":0,"x_max":0,"o":""},"Ă":{"ha":1389,"x_min":0,"x_max":0,"o":""},"ă":{"ha":1389,"x_min":0,"x_max":0,"o":""},"Ą":{"ha":1389,"x_min":0,"x_max":0,"o":""},"ą":{"ha":1389,"x_min":0,"x_max":0,"o":""},"Ć":{"ha":1389,"x_min":0,"x_max":0,"o":""},"ć":{"ha":1389,"x_min":0,"x_max":0,"o":""},"Ĉ":{"ha":1389,"x_min":0,"x_max":0,"o":""},"ĉ":{"ha":1389,"x_min":0,"x_max":0,"o":""},"Ċ":{"ha":1389,"x_min":0,"x_max":0,"o":""},"ċ":{"ha":1389,"x_min":0,"x_max":0,"o":""},"Č":{"ha":1389,"x_min":0,"x_max":0,"o":""},"č":{"ha":1389,"x_min":0,"x_max":0,"o":""},"Ď":{"ha":1389,"x_min":0,"x_max":0,"o":""},"ď":{"ha":1389,"x_min":0,"x_max":0,"o":""},"Đ":{"ha":1389,"x_min":0,"x_max":0,"o":""},"đ":{"ha":1389,"x_min":0,"x_max":0,"o":""},"Ē":{"ha":1389,"x_min":0,"x_max":0,"o":""},"ē":{"ha":1389,"x_min":0,"x_max":0,"o":""},"Ĕ":{"ha":1389,"x_min":0,"x_max":0,"o":""},"ĕ":{"ha":1389,"x_min":0,"x_max":0,"o":""},"Ė":{"ha":1389,"x_min":0,"x_max":0,"o":""},"ė":{"ha":1389,"x_min":0,"x_max":0,"o":""},"Ę":{"ha":1389,"x_min":0,"x_max":0,"o":""},"ę":{"ha":1389,"x_min":0,"x_max":0,"o":""},"Ě":{"ha":1389,"x_min":0,"x_max":0,"o":""},"ě":{"ha":1389,"x_min":0,"x_max":0,"o":""},"Ĝ":{"ha":1389,"x_min":0,"x_max":0,"o":""},"ĝ":{"ha":1389,"x_min":0,"x_max":0,"o":""},"Ğ":{"ha":1389,"x_min":0,"x_max":0,"o":""},"ğ":{"ha":1389,"x_min":0,"x_max":0,"o":""},"’":{"ha":372,"x_min":0,"x_max":0,"o":"m 0 889 l 0 1114 l 225 1114 l 225 889 b 0 664 225 765 124 664 l 0 721 b 168 889 93 721 168 796 "}}}
